<svg xmlns="http://www.w3.org/2000/svg" width="742" height="244.322" viewBox="0 0 742 244.322">
  <g id="Raggruppa_1023" data-name="Raggruppa 1023" transform="translate(-868 -3086.66)">
    <text id="Continua_a_scorrere" data-name="Continua a scorrere" transform="translate(1239 3229)" fill="#fff" font-size="60" font-family="BookmanOldStyle, Bookman Old Style" letter-spacing="-0.012em"><tspan x="-370.307" y="0">CONTINUA A SCORRERE</tspan></text>
    <g id="Raggruppa_994" data-name="Raggruppa 994" transform="translate(1072.527 3086.66)">
      <path id="Tracciato_71" data-name="Tracciato 71" d="M538.746,151.827c-6.964,2.939-9.044-3.044-16.575-3.044-6.423,0-8.517,3.2-8.517,5.571a5.318,5.318,0,0,0,.211,1.438H454.882c-12.037,0-20.127-6.958-20.127-17.311a13.4,13.4,0,0,1,13.39-13.393,10.261,10.261,0,0,1,10.248,10.254,7.746,7.746,0,0,1-7.739,7.737,5.74,5.74,0,0,1-5.733-5.731,2.3,2.3,0,1,0-4.606,0,10.357,10.357,0,0,0,10.339,10.346A12.365,12.365,0,0,0,463,135.341a14.876,14.876,0,0,0-14.858-14.865,18.024,18.024,0,0,0-18,18,20.578,20.578,0,0,0,8.84,17.311H410.473c-20.842,0-35.391-12.608-35.391-30.659a24.1,24.1,0,0,1,24.066-24.073,18.819,18.819,0,0,1,18.795,18.8,14.59,14.59,0,0,1-14.571,14.575,11.208,11.208,0,0,1-11.2-11.2,8.438,8.438,0,0,1,3.07-6.487c.492,2.676,2.9,4.243,5.946,4.243,4.381,0,7.636-2.325,8.8-4.684a.5.5,0,0,0-.632-.681c-3.824,1.339-3.457-3.576-7.124-4.871a2.308,2.308,0,0,0-1.567-.632,13.123,13.123,0,0,0-13.107,13.112,15.822,15.822,0,0,0,15.809,15.8,19.2,19.2,0,0,0,19.182-19.182,23.43,23.43,0,0,0-23.406-23.4,28.711,28.711,0,0,0-28.677,28.68c0,20.436,16.821,35.27,40,35.27h112.29c.023,0,.044-.014.066-.014h.033c7.719,0,16.074-5.288,17.252-7.967.225-.511-.689-.881-1.368-.6" transform="translate(-205.405 -96.453)" fill="#fff" fill-rule="evenodd"/>
      <path id="Tracciato_72" data-name="Tracciato 72" d="M416.893,96.453a23.427,23.427,0,0,0-23.4,23.4,19.2,19.2,0,0,0,19.181,19.182,15.824,15.824,0,0,0,15.809-15.8,13.123,13.123,0,0,0-13.105-13.112,2.284,2.284,0,0,0-1.569.632c-3.667,1.295-3.3,6.21-7.122,4.871a.5.5,0,0,0-.628.681c1.161,2.36,4.417,4.684,8.8,4.684,3.047,0,5.451-1.567,5.943-4.243a8.44,8.44,0,0,1,3.072,6.487,11.211,11.211,0,0,1-11.2,11.2A14.588,14.588,0,0,1,398.1,119.857a18.819,18.819,0,0,1,18.793-18.8,24.1,24.1,0,0,1,24.066,24.071c0,18.053-14.552,30.661-35.389,30.661H377.057a20.574,20.574,0,0,0,8.84-17.311,18.022,18.022,0,0,0-18-18,14.881,14.881,0,0,0-14.861,14.865,12.367,12.367,0,0,0,12.35,12.351,10.356,10.356,0,0,0,10.341-10.346,2.306,2.306,0,0,0-4.611,0,5.735,5.735,0,0,1-5.73,5.731,7.749,7.749,0,0,1-7.74-7.737A10.263,10.263,0,0,1,367.9,125.088a13.4,13.4,0,0,1,13.388,13.393c0,10.353-8.088,17.311-20.125,17.311H302.177a5.318,5.318,0,0,0,.213-1.438c0-2.368-2.1-5.571-8.519-5.571-7.531,0-9.61,5.983-16.578,3.044-.677-.286-1.59.084-1.365.6,1.176,2.679,9.531,7.967,17.247,7.967h.038c.023,0,.038.014.065.014H405.569c23.179,0,40-14.835,40-35.272a28.71,28.71,0,0,0-28.677-28.679" transform="translate(-275.893 -96.453)" fill="#fff" fill-rule="evenodd"/>
    </g>
    <g id="Raggruppa_995" data-name="Raggruppa 995" transform="translate(1407.271 3330.982) rotate(180)">
      <path id="Tracciato_71-2" data-name="Tracciato 71" d="M168.275,55.374c-6.964,2.939-9.044-3.044-16.575-3.044-6.423,0-8.517,3.2-8.517,5.571a5.318,5.318,0,0,0,.211,1.438H84.411c-12.037,0-20.127-6.958-20.127-17.311a13.4,13.4,0,0,1,13.39-13.393A10.261,10.261,0,0,1,87.922,38.888a7.746,7.746,0,0,1-7.739,7.737,5.74,5.74,0,0,1-5.733-5.731,2.3,2.3,0,1,0-4.606,0A10.357,10.357,0,0,0,80.184,51.24,12.365,12.365,0,0,0,92.532,38.888,14.876,14.876,0,0,0,77.674,24.024a18.024,18.024,0,0,0-18,18,20.578,20.578,0,0,0,8.84,17.311H40C19.16,59.34,4.611,46.732,4.611,28.68A24.1,24.1,0,0,1,28.677,4.608,18.819,18.819,0,0,1,47.472,23.4,14.59,14.59,0,0,1,32.9,37.979a11.208,11.208,0,0,1-11.2-11.2,8.438,8.438,0,0,1,3.07-6.487c.492,2.676,2.9,4.243,5.946,4.243,4.381,0,7.636-2.325,8.8-4.684a.5.5,0,0,0-.632-.681c-3.824,1.339-3.457-3.576-7.124-4.871a2.308,2.308,0,0,0-1.567-.632A13.123,13.123,0,0,0,17.092,26.783,15.822,15.822,0,0,0,32.9,42.587,19.2,19.2,0,0,0,52.083,23.4,23.43,23.43,0,0,0,28.677,0,28.711,28.711,0,0,0,0,28.68c0,20.436,16.821,35.27,40,35.27h112.29c.023,0,.044-.014.066-.014h.033c7.719,0,16.074-5.288,17.252-7.967.225-.511-.689-.881-1.368-.6" transform="translate(165.066 0)" fill="#fff" fill-rule="evenodd"/>
      <path id="Tracciato_72-2" data-name="Tracciato 72" d="M141,0a23.427,23.427,0,0,0-23.4,23.4,19.2,19.2,0,0,0,19.181,19.182,15.824,15.824,0,0,0,15.809-15.8,13.123,13.123,0,0,0-13.105-13.112,2.284,2.284,0,0,0-1.569.632c-3.667,1.295-3.3,6.21-7.122,4.871a.5.5,0,0,0-.628.681c1.161,2.36,4.417,4.684,8.8,4.684,3.047,0,5.451-1.567,5.943-4.243a8.44,8.44,0,0,1,3.072,6.487,11.211,11.211,0,0,1-11.2,11.2A14.588,14.588,0,0,1,122.207,23.4,18.819,18.819,0,0,1,141,4.608a24.1,24.1,0,0,1,24.066,24.071c0,18.053-14.552,30.661-35.389,30.661H101.164A20.574,20.574,0,0,0,110,42.028a18.022,18.022,0,0,0-18-18A14.881,14.881,0,0,0,77.143,38.888,12.367,12.367,0,0,0,89.493,51.24,10.356,10.356,0,0,0,99.834,40.894a2.306,2.306,0,0,0-4.611,0,5.735,5.735,0,0,1-5.73,5.731,7.749,7.749,0,0,1-7.74-7.737A10.263,10.263,0,0,1,92,28.635a13.4,13.4,0,0,1,13.388,13.393c0,10.353-8.088,17.311-20.125,17.311H26.284A5.317,5.317,0,0,0,26.5,57.9c0-2.368-2.1-5.571-8.519-5.571-7.531,0-9.61,5.983-16.578,3.044-.677-.286-1.59.084-1.365.6,1.176,2.679,9.531,7.967,17.247,7.967h.038c.023,0,.038.014.065.014H129.676c23.179,0,40-14.835,40-35.272A28.71,28.71,0,0,0,141,0" transform="translate(0 0)" fill="#fff" fill-rule="evenodd"/>
    </g>
  </g>
</svg>
