<svg xmlns="http://www.w3.org/2000/svg" width="456" height="456" viewBox="0 0 456 456">
  <g id="indice" transform="translate(-2139 -22)">
    <g id="Ellisse_2" data-name="Ellisse 2" transform="translate(2139 22)" fill="#242623" stroke="#186e26" stroke-width="7">
      <circle cx="228" cy="228" r="228" stroke="none"/>
      <circle cx="228" cy="228" r="224.5" fill="none"/>
    </g>
    <text id="INDICE-2" data-name="INDICE" transform="translate(2189 325)" fill="#fff" font-size="97" font-family="BookmanOldStyle-Bold, Bookman Old Style" font-weight="700" letter-spacing="-0.012em"><tspan x="0" y="0">INDICE</tspan></text>
    <g id="Raggruppa_990" data-name="Raggruppa 990" transform="translate(2358.928 22.533) rotate(42)">
      <g id="Raggruppa_989" data-name="Raggruppa 989">
        <g id="Raggruppa_986" data-name="Raggruppa 986" transform="translate(2.154 0.275)">
          <g id="Raggruppa_985" data-name="Raggruppa 985">
            <path id="Tracciato_135" data-name="Tracciato 135" d="M.045,49.257c1.777-8.112,10.824-9.773,16.778-9.966a28.5,28.5,0,0,0,16.833-5.867C50.471,20.153,36.672,0,36.672,0s4.409,26.4-13.11,30.774c0,0-11.793,3.547-22.829-6.423,0,0,1.777,7.616,9.428,9.855C5.762,35.384-.6,38.352.045,49.257Z" transform="translate(0 37.405)" fill="#fff"/>
            <path id="Tracciato_136" data-name="Tracciato 136" d="M54.619,3.426c-8.293.417-11.423,9.066-12.594,14.906a28.5,28.5,0,0,1-8.562,15.637C17.6,48.367,0,31.435,0,31.435s25.314,8.7,32.513-7.859c0,0,5.443-11.048-2.572-23.576,0,0,7.219,3.009,8.167,10.925C39.994,6.78,43.97,1,54.619,3.426Z" transform="translate(43.721)" fill="#fff"/>
          </g>
          <path id="Tracciato_137" data-name="Tracciato 137" d="M0,26.8C6.719,23.026,5.916,11.4,4.257,2.9c-.2-1.025-.421-2-.628-2.9C4.469.367,5.4.741,6.353,1.089,14.465,4.126,25.817,6.856,30.644.851c1.441,10.842-8.66,13.125-22.15,4.9C14.373,20.421,10.457,30.007,0,26.8Z" transform="translate(43.45 42.531)" fill="#fff"/>
          <path id="Tracciato_138" data-name="Tracciato 138" d="M30.781.619c-6.72,3.772-5.918,15.4-4.259,23.9.2,1.025.421,2,.628,2.9-.84-.367-1.767-.741-2.724-1.089-8.112-3.037-19.462-5.766-24.289.238C-1.3,15.726,8.8,13.443,22.285,21.671,16.407,7,20.324-2.589,30.781.619Z" transform="translate(54.552 56.552)" fill="#fff"/>
          <path id="Tracciato_139" data-name="Tracciato 139" d="M4.937.756C8.56,3.694,9.653,10.873,9.653,10.873S2.754,8.61.455,4.552A2.964,2.964,0,0,1,4.937.756Z" transform="translate(59.182 56.493)" fill="#fff"/>
          <path id="Tracciato_140" data-name="Tracciato 140" d="M30.781.619c-6.719,3.774-5.916,15.4-4.257,23.9.2,1.025.421,2,.628,2.9-.84-.367-1.767-.741-2.724-1.089-8.112-3.037-19.462-5.767-24.291.238-1.441-10.842,8.66-13.125,22.15-4.9C16.408,7,20.324-2.588,30.781.619Z" transform="translate(10.093 4.251)" fill="#fff"/>
          <path id="Tracciato_141" data-name="Tracciato 141" d="M4.716,10.115C1.093,7.178,0,0,0,0S6.9,2.261,9.2,6.32A2.964,2.964,0,0,1,4.716,10.115Z" transform="translate(12.743 2.717)" fill="#fff"/>
        </g>
        <g id="Raggruppa_987" data-name="Raggruppa 987" transform="translate(0 72.286)">
          <path id="Tracciato_142" data-name="Tracciato 142" d="M24.4,45.645a8.885,8.885,0,0,0-1.85-2.341,10.126,10.126,0,0,0-6.555-2.587c-2.179-.022-4.895.836-5.858,2.666a4.515,4.515,0,0,0-.174,3.759,4.152,4.152,0,0,0,1.808,1.828c1.5.783,2.718.146,4.193.462,5.066,1.087,2.388,4.553.7,5.466a7.488,7.488,0,0,1-3.854.718C-.623,55.072,3.381,40.236,6.3,33.308c2.976-7.069,7.848-13.543,9.8-21C17.12,8.426,16.876,3.151,13.608,0q-.541.647-1.08,1.3c-.2.5-.43.994-.655,1.486a21.065,21.065,0,0,1,.444,8.022c-.567,5.6-3.154,10.709-5.6,15.687A70.069,70.069,0,0,0,1.467,39.628C.436,43.585-.8,48.4.683,52.558c2.262,6.359,10.3,10.109,16.868,7.957C23.868,58.444,27.679,51.715,24.4,45.645Z" transform="translate(33.293 20.281)" fill="#fff"/>
          <path id="Tracciato_143" data-name="Tracciato 143" d="M0,1.058Q.237.525.479,0C.317.351.158.7,0,1.058Z" transform="translate(38.734 51.535)" fill="#fff"/>
          <path id="Tracciato_144" data-name="Tracciato 144" d="M1.031,14.483A13.127,13.127,0,0,0,3.749,26.756c3.144,3.407,9.059,4.82,12.729,2.385s3.195-8.778-1.2-10.641c-2.426-1.027-5.412-.653-7.524-2.179a4.959,4.959,0,0,1-1.7-5.538,8.927,8.927,0,0,1,3.965-4.424c13.284-8.35,31.468,1.8,34.257,15.872,2.537,12.809-6.571,23-15.884,31.864-4.917,4.681-16.132,6.917-19.9-1.226-.361-.782-.886-1.8-1.787-1.739a1.6,1.6,0,0,0-.868.408A7.68,7.68,0,0,0,3.09,57.821a13.148,13.148,0,0,0,3.956,8.7c1.057,1.029,4.8,2.242,5.305,3.3.566,1.175-2.181,5.311-2.72,6.425C4.494,86.867-2.639,98.212.991,110.759c.783,2.707,3.3,1.375,4.38-.148,2.214-3.129,5.642-5.522,7.553-8.806,1.279.5,2.4,1.676,3.809,2.216a12.29,12.29,0,0,0,5.047.775,11.35,11.35,0,0,0,10.934-9.551c.146-.827-.909-1.418-1.735-.918-5.013,3.028-8.25-3.673-8.471-6.587a41.956,41.956,0,0,1,.728-9.994c1.074-6.5,4.333-11.977,8.417-17.052,8.408-8.155,15.716-17.616,18.483-28.708,2.046-8.2.547-17.853-6.15-24.339A26.6,26.6,0,0,0,34.76,1.978,32.647,32.647,0,0,0,29.588.527C17.432-1.829,3.84,3.871,1.031,14.483Z" fill="#fff"/>
        </g>
        <g id="Raggruppa_988" data-name="Raggruppa 988" transform="translate(83.636)">
          <path id="Tracciato_145" data-name="Tracciato 145" d="M45.645,24.4a8.826,8.826,0,0,1-2.341-1.85,10.12,10.12,0,0,1-2.587-6.555c-.023-2.179.836-4.895,2.666-5.856a4.5,4.5,0,0,1,3.759-.174,4.138,4.138,0,0,1,1.828,1.808c.783,1.5.146,2.718.462,4.192,1.087,5.067,4.553,2.388,5.466.7a7.483,7.483,0,0,0,.718-3.854C55.072-.624,40.235,3.38,33.308,6.3c-7.069,2.976-13.543,7.847-21,9.8C8.426,17.119,3.151,16.876,0,13.608q.647-.544,1.3-1.082c.5-.2.994-.428,1.486-.653a21.033,21.033,0,0,0,8.022.443c5.6-.567,10.709-3.154,15.687-5.6A70.066,70.066,0,0,1,39.628,1.466C43.585.437,48.4-.8,52.558.684c6.359,2.261,10.109,10.3,7.957,16.868C58.444,23.868,51.715,27.679,45.645,24.4Z" transform="translate(20.281 33.294)" fill="#fff"/>
          <path id="Tracciato_146" data-name="Tracciato 146" d="M1.058,0Q.525.235,0,.478C.352.316.7.158,1.058,0Z" transform="translate(51.535 38.735)" fill="#fff"/>
          <path id="Tracciato_147" data-name="Tracciato 147" d="M14.483,1.031A13.131,13.131,0,0,1,26.756,3.749c3.407,3.144,4.82,9.059,2.385,12.73s-8.778,3.193-10.641-1.2c-1.027-2.426-.653-5.411-2.179-7.524a4.959,4.959,0,0,0-5.538-1.7,8.936,8.936,0,0,0-4.424,3.967c-8.35,13.282,1.8,31.467,15.872,34.256,12.809,2.537,23-6.571,31.864-15.883,4.681-4.918,6.917-16.134-1.226-19.9-.782-.361-1.8-.884-1.739-1.786a1.606,1.606,0,0,1,.408-.87A7.68,7.68,0,0,1,57.821,3.09a13.162,13.162,0,0,1,8.7,3.956c1.029,1.057,2.242,4.8,3.3,5.305,1.175.566,5.311-2.181,6.425-2.718C86.867,4.494,98.212-2.639,110.759.991c2.707.783,1.375,3.3-.148,4.382-3.129,2.213-5.522,5.64-8.806,7.552.5,1.279,1.676,2.4,2.216,3.809a12.314,12.314,0,0,1,.775,5.047,11.349,11.349,0,0,1-9.551,10.934c-.827.148-1.418-.908-.918-1.735,3.028-5.013-3.673-8.249-6.587-8.471a41.955,41.955,0,0,0-9.994.729c-6.5,1.073-11.977,4.333-17.052,8.416-8.155,8.408-17.616,15.716-28.708,18.484-8.2,2.045-17.853.547-24.338-6.152A26.564,26.564,0,0,1,1.978,34.76,32.676,32.676,0,0,1,.527,29.589C-1.829,17.432,3.871,3.84,14.483,1.031Z" fill="#fff"/>
        </g>
        <path id="Tracciato_148" data-name="Tracciato 148" d="M76.056,1.566c-1.257,2.542-3.363,4.675-4.409,7.3-.877-.229-1.691-.969-2.659-1.209a7.286,7.286,0,0,0-3.382-.016,8.707,8.707,0,0,0-6.593,8.217.69.69,0,0,0,1.2.485c3.112-2.775,5.685,1.792,6.022,3.908a34.682,34.682,0,0,1,.171,7.42,30.8,30.8,0,0,1-4.443,13.451q-1.28,1.767-2.477,3.606c.189-.889.351-1.783.478-2.688.422-3.02.921-6.691-.327-9.585a8.45,8.45,0,0,0-11.651-3.991c-4.034,2.216-6.111,7.577-3.549,11.675a5.818,5.818,0,0,0,1.375,1.517,5.954,5.954,0,0,0,4.494,1.179A4.715,4.715,0,0,0,54,40.231a3.676,3.676,0,0,0-.13-2.78,2.616,2.616,0,0,0-1.312-1.144c-1.039-.411-1.8.191-2.8.12-3.414-.241-1.874-3.081-.817-3.937a4.815,4.815,0,0,1,2.5-.95c8.9-1.077,7.221,10.261,5.748,15.671-.282,1.039-.611,2.07-.963,3.1-.165.319-.324.64-.484.963q-2.076.7-4.1,1.578c-1.048.282-2.1.541-3.153.754-5.5,1.106-16.922,2.017-15.251-6.789a4.837,4.837,0,0,1,1.115-2.428c.927-1,3.863-2.344,3.876,1.08,0,1-.649,1.717-.308,2.783a2.623,2.623,0,0,0,1.054,1.386,3.682,3.682,0,0,0,2.765.317,4.719,4.719,0,0,0,2.843-3.509,5.956,5.956,0,0,0-.875-4.564A5.818,5.818,0,0,0,42.293,40.4c-3.918-2.831-9.406-1.12-11.887,2.756a8.45,8.45,0,0,0,3.2,11.894c2.8,1.44,6.5,1.188,9.541.969.911-.066,1.815-.168,2.714-.3q-1.914,1.068-3.763,2.23a30.828,30.828,0,0,1-13.719,3.531,34.67,34.67,0,0,1-7.391-.669c-2.09-.478-6.475-3.351-3.5-6.27a.69.69,0,0,0-.4-1.234,8.7,8.7,0,0,0-8.639,6.027,7.284,7.284,0,0,0-.213,3.373c.175.982.858,1.844,1.029,2.735-2.688.87-4.958,2.827-7.578,3.91C.412,69.887-.945,71.376.9,72.2c8.584,3.8,17.946.452,26.473-1.679.894-.224,4.331-1.539,5.1-1.036.69.452,1,3.027,1.586,3.832A9.424,9.424,0,0,0,39.8,76.885a6.4,6.4,0,0,0,5-1.07,1.13,1.13,0,0,0,.43-.519c.181-.58-.478-1.038-.991-1.362-5.355-3.382-2-10.43,2.167-13.1,2.277-1.457,4.632-2.888,7.045-4.116a37.858,37.858,0,0,0-1.806,7.515c-.816,6.247.8,13.174,5.647,17.2a15.851,15.851,0,0,0,6.459,3.153,18.978,18.978,0,0,0,3.508.5c8.177.4,16.777-5.285,17.939-13.388a12.172,12.172,0,0,0,.1-2.518,17.286,17.286,0,0,0,.324-3,18.975,18.975,0,0,0-.262-3.534,15.83,15.83,0,0,0-2.711-6.656c-3.695-5.1-10.5-7.183-16.784-6.789a36.046,36.046,0,0,0-4.219.528c.937-1.4,1.922-2.78,2.916-4.124,2.941-3.978,10.2-6.853,13.212-1.285.289.535.7,1.223,1.292,1.082a1.128,1.128,0,0,0,.548-.395,6.4,6.4,0,0,0,1.4-4.918,9.417,9.417,0,0,0-3.179-5.959c-.764-.64-3.312-1.121-3.717-1.84-.45-.8,1.093-4.141,1.375-5.017,2.7-8.364,6.668-17.481,3.452-26.3C78.244-.926,76.668.328,76.056,1.566ZM71.177,80.829a22.662,22.662,0,0,1-5.732-.092,9.826,9.826,0,0,1-5.715-2.944,17.151,17.151,0,0,1-3.582-7.034c-1.573-5.718-.063-11.184,2.653-16.321a25.172,25.172,0,0,1,5.019-1.153,16.1,16.1,0,0,1,11.065,2.4c6,4.186,9.839,13.873,5.345,20.372a10.9,10.9,0,0,1-3.493,3.429,8.849,8.849,0,0,1-2.217.849A22.1,22.1,0,0,1,71.177,80.829Z" transform="translate(51.686 51.148)" fill="#fff"/>
      </g>
    </g>
  </g>
</svg>
